<svg xmlns="http://www.w3.org/2000/svg" version="1.1" xmlns:xlink="http://www.w3.org/1999/xlink" xmlns:svgjs="http://svgjs.dev/svgjs" viewBox="0 0 800 800" opacity="1"><defs><linearGradient x1="50%" y1="0%" x2="50%" y2="100%" id="cccoil-grad"><stop stop-color="hsl(232, 100%, 50%)" stop-opacity="1" offset="0%"></stop><stop stop-color="hsl(212, 100%, 50%)" stop-opacity="1" offset="100%"></stop></linearGradient></defs><g stroke="url(#cccoil-grad)" fill="none" stroke-linecap="round"><circle r="540" cx="400" cy="400" stroke-width="7" stroke-dasharray="3393 3393" transform="rotate(360, 400, 400)" opacity="0.39"></circle><circle r="525" cx="400" cy="400" stroke-width="7" stroke-dasharray="3204 3299" transform="rotate(350, 400, 400)" opacity="0.87"></circle><circle r="510" cx="400" cy="400" stroke-width="7" stroke-dasharray="3021 3204" transform="rotate(339, 400, 400)" opacity="0.52"></circle><circle r="495" cx="400" cy="400" stroke-width="7" stroke-dasharray="2844 3110" transform="rotate(329, 400, 400)" opacity="0.34"></circle><circle r="480" cx="400" cy="400" stroke-width="7" stroke-dasharray="2671 3016" transform="rotate(319, 400, 400)" opacity="0.80"></circle><circle r="465" cx="400" cy="400" stroke-width="7" stroke-dasharray="2504 2922" transform="rotate(309, 400, 400)" opacity="0.17"></circle><circle r="450" cx="400" cy="400" stroke-width="7" stroke-dasharray="2343 2827" transform="rotate(298, 400, 400)" opacity="0.19"></circle><circle r="435" cx="400" cy="400" stroke-width="7" stroke-dasharray="2187 2733" transform="rotate(288, 400, 400)" opacity="0.64"></circle><circle r="420" cx="400" cy="400" stroke-width="7" stroke-dasharray="2036 2639" transform="rotate(278, 400, 400)" opacity="0.19"></circle><circle r="405" cx="400" cy="400" stroke-width="7" stroke-dasharray="1890 2545" transform="rotate(267, 400, 400)" opacity="0.15"></circle><circle r="390" cx="400" cy="400" stroke-width="7" stroke-dasharray="1750 2450" transform="rotate(257, 400, 400)" opacity="0.79"></circle><circle r="375" cx="400" cy="400" stroke-width="7" stroke-dasharray="1616 2356" transform="rotate(247, 400, 400)" opacity="0.34"></circle><circle r="360" cx="400" cy="400" stroke-width="7" stroke-dasharray="1486 2262" transform="rotate(237, 400, 400)" opacity="0.98"></circle><circle r="345" cx="400" cy="400" stroke-width="7" stroke-dasharray="1363 2168" transform="rotate(226, 400, 400)" opacity="0.14"></circle><circle r="330" cx="400" cy="400" stroke-width="7" stroke-dasharray="1244 2073" transform="rotate(216, 400, 400)" opacity="0.31"></circle><circle r="315" cx="400" cy="400" stroke-width="7" stroke-dasharray="1131 1979" transform="rotate(206, 400, 400)" opacity="0.22"></circle><circle r="300" cx="400" cy="400" stroke-width="7" stroke-dasharray="1023 1885" transform="rotate(195, 400, 400)" opacity="0.43"></circle><circle r="285" cx="400" cy="400" stroke-width="7" stroke-dasharray="921 1791" transform="rotate(185, 400, 400)" opacity="0.99"></circle><circle r="270" cx="400" cy="400" stroke-width="7" stroke-dasharray="824 1696" transform="rotate(175, 400, 400)" opacity="0.78"></circle><circle r="255" cx="400" cy="400" stroke-width="7" stroke-dasharray="732 1602" transform="rotate(165, 400, 400)" opacity="0.16"></circle><circle r="240" cx="400" cy="400" stroke-width="7" stroke-dasharray="646 1508" transform="rotate(154, 400, 400)" opacity="0.19"></circle><circle r="225" cx="400" cy="400" stroke-width="7" stroke-dasharray="565 1414" transform="rotate(144, 400, 400)" opacity="0.46"></circle><circle r="210" cx="400" cy="400" stroke-width="7" stroke-dasharray="490 1319" transform="rotate(134, 400, 400)" opacity="0.31"></circle><circle r="195" cx="400" cy="400" stroke-width="7" stroke-dasharray="420 1225" transform="rotate(123, 400, 400)" opacity="0.38"></circle><circle r="180" cx="400" cy="400" stroke-width="7" stroke-dasharray="355 1131" transform="rotate(113, 400, 400)" opacity="0.60"></circle><circle r="165" cx="400" cy="400" stroke-width="7" stroke-dasharray="296 1037" transform="rotate(103, 400, 400)" opacity="0.79"></circle><circle r="150" cx="400" cy="400" stroke-width="7" stroke-dasharray="242 942" transform="rotate(93, 400, 400)" opacity="0.51"></circle><circle r="135" cx="400" cy="400" stroke-width="7" stroke-dasharray="194 848" transform="rotate(82, 400, 400)" opacity="0.78"></circle><circle r="120" cx="400" cy="400" stroke-width="7" stroke-dasharray="151 754" transform="rotate(72, 400, 400)" opacity="0.32"></circle><circle r="105" cx="400" cy="400" stroke-width="7" stroke-dasharray="113 660" transform="rotate(62, 400, 400)" opacity="0.30"></circle><circle r="90" cx="400" cy="400" stroke-width="7" stroke-dasharray="81 565" transform="rotate(51, 400, 400)" opacity="0.14"></circle><circle r="75" cx="400" cy="400" stroke-width="7" stroke-dasharray="54 471" transform="rotate(41, 400, 400)" opacity="0.69"></circle><circle r="60" cx="400" cy="400" stroke-width="7" stroke-dasharray="32 377" transform="rotate(31, 400, 400)" opacity="0.64"></circle><circle r="45" cx="400" cy="400" stroke-width="7" stroke-dasharray="16 283" transform="rotate(21, 400, 400)" opacity="0.99"></circle><circle r="30" cx="400" cy="400" stroke-width="7" stroke-dasharray="5 188" transform="rotate(10, 400, 400)" opacity="0.59"></circle><circle r="15" cx="400" cy="400" stroke-width="7" stroke-dasharray="0 94" opacity="0.82"></circle></g></svg>