<svg xmlns="http://www.w3.org/2000/svg" version="1.1" xmlns:xlink="http://www.w3.org/1999/xlink" xmlns:svgjs="http://svgjs.dev/svgjs" viewBox="0 0 800 800" opacity="1"><defs><linearGradient x1="50%" y1="0%" x2="50%" y2="100%" id="wwwhirl-grad"><stop stop-color="hsl(206, 75%, 49%)" stop-opacity="1" offset="45%"></stop><stop stop-color="hsla(244, 100%, 50%, 1.00)" stop-opacity="1" offset="100%"></stop></linearGradient></defs><g stroke-width="2" stroke="url(#wwwhirl-grad)" fill="none" stroke-linecap="round"><path d="M-1002.5000031709671 668.172419967518C-866.1458382381334 443.8698186530064 -807.7083389812046 -119.95465334426144 -535.000009115537 -100.8650702536647C-262.29167924986916 -81.77548716306794 -340.2083449257743 695.4432529540848 -67.50001506010676 733.6224191352782C205.20831480556103 771.8015853164716 127.29164912965575 46.73831328612792 399.9999789953233 30.034928081855753C672.7083088609911 13.331542877583615 594.7916431850861 638.1745036822946 867.4999730507536 676.353669863488C1140.208302916421 714.5328360446813 1062.2916372405166 95.31448454344996 1334.9999671061842 160.93492641737623C1607.7082969718517 226.55536829130244 1666.1457962287805 685.3871332902881 1802.499961161614 901.3380420026638 " transform="rotate(107.25, 400, 400)"></path><path d="M-960.000003306071 660.0460283127849C-827.7777827651413 442.5404755229556 -771.1111168190286 -104.19840641378904 -506.66667573716904 -85.68729553805885C-242.2222346553093 -67.17618466232867 -317.7777892501265 686.4904724209711 -53.33334816826698 723.5126941724312C211.11109291359253 760.5349159238914 135.55553831877546 57.44325819749761 399.9999794006351 41.246036181233706C664.4444204824945 25.048814164969798 588.8888658876772 630.9571397937806 853.333306969537 667.9793615452406C1117.7777480513964 705.0015832967009 1042.2221934565796 104.54742426520383 1306.6666345384392 168.17936790052627C1571.1110756202984 231.8113115358487 1627.7777415664114 676.7390836560772 1759.9999621073407 886.1460254377748 " transform="rotate(104, 400, 400)"></path><path d="M-917.5000034411748 651.9196366580519C-789.4097272921492 441.2111323929047 -734.5138946568525 -88.44215948331663 -478.333342358801 -70.50952082245301C-222.15279006074945 -52.576882161589396 -295.34723357447865 677.5376918878571 -39.1666812764272 713.4029692095842C217.01387102162425 749.2682465313113 143.81942750789517 68.1482031088673 399.9999798059466 52.457144280611644C656.1805321039981 36.766085452355995 582.986088590269 623.7397759052662 839.1666408883202 659.6050532269934C1095.3471931863714 695.4703305487205 1022.152749672643 113.7803639869577 1278.3333019706943 175.42380938367629C1534.513854268746 237.06725478039488 1589.4096869040427 668.0910340218662 1717.4999630530679 870.9540088728858 " transform="rotate(100.75, 400, 400)"></path><path d="M-875.0000035762787 643.7931229330063C-751.041671819157 439.88166719254133 -697.9166724946764 -72.68603462315671 -450.000008980433 -55.33186817715966C-202.0833454661896 -37.977701731162625 -272.9166778988307 668.5847892844307 -25.000014384587416 703.2931221764246C222.91664912965598 738.0014550684187 152.08331669701488 78.8530259499245 399.99998021125816 63.66813030967711C647.9166437255014 48.48323466942968 577.0833112928603 616.5222899464396 824.9999748071039 651.2306228384336C1072.916638321347 685.9389557304277 1002.0833058887065 123.01318163839909 1249.9999694029493 182.66812879651386C1497.9166329171926 242.32307595462862 1551.0416322416736 659.4428623173429 1674.999963998795 855.7618702376843 " transform="rotate(97.5, 400, 400)"></path><path d="M-832.5000037113825 635.6667007606952C-712.6736163461651 438.55229354491235 -661.3194503325003 -56.929818210262425 -421.6666756020651 -40.15412397913195C-182.01390087162974 -23.378429748001466 -250.48612222318286 659.6319782337388 -10.83334749274752 693.1833666959996C228.8194272376877 726.7347551582606 160.3472058861346 89.5579403437161 399.9999806165697 74.87920789147692C639.652755347005 60.20047543923776 571.1805339954519 609.3048955403474 810.8333087258873 642.8562840026083C1050.4860834563221 676.4076724648692 982.0138621047699 132.24609084257483 1221.6666368352048 189.9125397620858C1461.3194115656397 247.57898868159668 1512.6735775793045 650.7947821655538 1632.4999649445222 840.5698231552173 " transform="rotate(94.25, 400, 400)"></path><path d="M-789.9999962170918 627.5402175532278C-674.3055532437784 437.2228588621271 -624.7222205409298 -41.173662832524386 -393.3333345943027 -24.976440816260478C-161.94444864767547 -8.77921879999657 -228.0555589181405 650.6791061478905 3.3333270284866785 683.0735501804182C234.72221297511373 715.467994212946 168.61110270464883 100.26279370235142 399.99998865127577 86.0902244381205C631.3888745979029 71.91765517388959 565.277764327438 602.0874400990989 796.666650274065 634.4818841316267C1028.055536220692 666.8763281641543 961.9444259502275 141.47893901159438 1193.3333118968549 197.1568896925015C1424.7221978434814 252.83484037340855 1474.30553054633 642.1466409786086 1589.9999735196434 825.3777150375939 " transform="rotate(91, 400, 400)"></path><path d="M-747.4999963521958 619.4138564160729C-635.9374977707863 435.8935462496544 -588.1249983787537 -25.41738538447386 -365.00000121593473 -9.798635583076518C-141.87500405311562 5.820114218320825 -205.62500324249254 641.7263561323549 17.49999392032646 672.9638557351494C240.62499108314523 704.201355337944 176.8749918937683 110.96776913129925 399.9999890565873 97.30136305507659C623.1249862194065 83.63495697885391 559.3749870300296 594.8701067281629 782.4999841928484 626.1076063309574C1005.6249813556672 657.345105933752 941.8749821662907 150.7119092509264 1164.9999793291097 204.4013616932297C1388.1249764919285 258.0908141355329 1435.9374758839613 633.4986218619758 1547.4999744653705 810.1857289902831 " transform="rotate(87.75, 400, 400)"></path><path d="M-704.9999964872997 611.2874037261837C-597.5694422977942 434.5641420844473 -551.5277762165776 -9.661199489157696 -336.66666783756676 5.379078097373082C-121.80555945855576 20.41935568390386 -183.1944475668447 632.7735145640848 31.666660812166242 662.8540697371462C246.52776919117696 692.9346249102077 185.13888108288813 121.67265300751271 399.9999894618991 108.51241011929828C614.8610978409099 95.35216723108385 553.472209732621 587.6526818044925 768.3333181116318 617.733236977554C983.1944264906426 647.8137921506154 921.8055383823541 159.944787937524 1136.666646761365 211.6457421412235C1351.5277551403756 263.346696344923 1397.5694212215922 624.8505111926086 1504.9999754110977 794.9936513902379 " transform="rotate(84.5, 400, 400)"></path><path d="M-662.4999966224035 603.1609510362944C-559.2013868248021 433.23473791924016 -514.9305540544016 6.094986406158469 -308.3333344591988 20.556791777822667C-101.73611486399591 35.01859714948688 -160.76389189119686 623.8206729958147 45.83332770400591 652.744283739143C252.43054729920868 681.6678944824714 193.40277027200773 132.37753688372615 399.9999898672106 119.72345718351998C606.5972094624135 107.06937748331381 547.5694324352123 580.4352568808222 754.1666520304152 609.3588676241504C960.7638716256176 638.2824783674788 901.7360945984176 169.17766662412166 1108.33331419362 218.8901225892173C1314.9305337888227 268.6025785543129 1359.201366559223 616.2024005232415 1462.4999763568244 779.8015737901927 " transform="rotate(81.25, 400, 400)"></path><path d="M-619.9999357223511 595.034498346405C-520.8332703166539 431.9053337540331 -478.33327085706924 21.851172301474634 -279.9999400456746 35.73450545827227C-81.6666092342798 49.6178386150699 -138.33327518039266 614.8678314275446 60.00005563100194 642.6344977411397C258.33338644239655 670.401164054735 201.6667204962838 143.08242075993962 400.0000513076784 130.9345042477417C598.3333821190731 118.78658773554376 541.6667161729602 573.2178319571517 740.0000469843549 600.9844982707469C938.3333777957494 628.7511645843421 881.6667118496371 178.41054531071927 1080.0000426610316 226.1345030372111C1278.333373472426 273.85846076370296 1320.8333729320111 607.5542898538743 1420.0000383377078 764.6094961901475 " transform="rotate(78, 400, 400)"></path><path d="M-577.499935857455 586.9080151389378C-482.4652148436617 430.5758990712479 -441.7360486948932 37.60732767921266 -251.66660666730667 50.91218862114373C-61.59716463971995 64.21704956307481 -115.90271950474482 605.9149593416964 74.16672252284172 632.5246812255584C264.23616455042827 659.1344031094205 209.9306096854035 153.78727411857494 400.00005171299017 142.14552079438528C590.0694937405767 130.50376747019558 535.7639388755517 566.0003765159033 725.8333809031383 592.6100983997653C915.9028229307246 619.2198202836273 861.5972680657003 187.6433934797388 1051.6667100932866 233.37885296762678C1241.736152120873 279.1143124555148 1282.4653182696418 598.9061486669291 1377.5000392834345 749.4173880725242 " transform="rotate(74.75, 400, 400)"></path><path d="M-534.9999359925588 578.7816234842046C-444.0971593706696 429.24655594119696 -405.13882653271713 53.363574609685074 -223.3332732889387 66.08996333674958C-41.527720045160095 78.81635206381408 -93.47216382909698 596.9621788085825 88.3333894146815 622.4149562627114C270.1389426584599 647.8677337168403 218.1944988745231 164.49221902994464 400.0000521183015 153.3566288937632C581.8056053620801 142.22103875758177 529.8611615781433 558.7830126273891 711.6667148219217 584.235790081518C893.4722680656998 609.6885675356469 841.5278242817635 196.87633320149266 1023.3333775255419 240.62329445077683C1205.1389307693203 284.37025570006097 1244.0972636072727 590.2580990327181 1335.0000402291619 734.2253715076351 " transform="rotate(71.5, 400, 400)"></path><path d="M-492.4999361276627 570.6551097591591C-405.72910389767753 427.9170907408336 -368.5416043705411 69.11969946984499 -194.99993991057073 81.26761598204293C-21.45827545060024 93.41553249424085 -71.04160815344915 588.0092762051562 102.50005630652129 612.3051092295519C276.0417207664916 636.6009422539477 226.45838806364281 175.19704187100183 400.00005252361314 164.56761492282865C573.5417169835835 153.93818797465548 523.9583842807347 551.5655266685624 697.5000487407051 575.8613596929582C871.0417132006753 600.1571927173541 821.458380497827 206.10915085293402 995.0000449577972 247.8676138636144C1168.5417094177672 289.6260768742947 1205.729208944904 581.6099273281948 1292.5000411748888 719.0332328724337 " transform="rotate(68.25, 400, 400)"></path><path d="M-449.99993626276654 562.5287791395824C-367.36104842468546 426.58780864593905 -331.944382208365 84.87600743547365 -166.66660653220282 96.44545173280501C-1.3888308560404994 108.01489603013638 -48.611052477801195 579.0565567071986 116.66672319836096 602.1954453018614C281.9444988745232 625.334333896524 234.72227725276252 185.9020478175278 400.0000529289247 175.77878405736286C565.277828605087 165.65552029719794 518.0556069833262 544.3482238152046 683.3333826594885 567.4871124098672C848.6111583356505 590.6260010045298 801.3889367138902 215.3421516098442 966.6667123900522 255.1121163819207C1131.9444880662145 294.8820811539972 1167.361154282535 572.96193872914 1250.000042120616 703.841277342701 " transform="rotate(65, 400, 400)"></path><path d="M-407.4999363978704 554.4022654145368C-328.9929929516934 425.25834344557563 -295.34716004618895 100.63213229563357 -138.33327315383485 111.62310437809836C18.680613738519355 122.61407646056315 -26.180496802153357 570.1036541037722 130.83339009020074 592.0855982687019C287.84727698255494 614.0675424336314 242.98616644188223 196.606870658585 400.0000533342363 186.9897700864283C557.0139402265904 177.37266951427162 512.1528296859178 537.1307378563779 669.1667165782717 559.1126820213074C826.1806034706258 581.0946261862371 781.3194929299536 224.57496926128556 938.3333798223075 262.3564357947582C1095.3472667146614 300.1379023282309 1128.993099620166 564.3137670246167 1207.5000430663429 688.6491387074996 " transform="rotate(61.75, 400, 400)"></path><path d="M-364.9999365329743 546.2758737598037C-290.62493747870127 423.92900031552483 -258.74993788401287 116.38837922610597 -109.99993977546688 126.8008790937042C38.750058333079096 137.21337896130242 -3.7499411265055187 561.1508735706584 145.00005698204063 581.9758733058547C293.75005509058656 602.8008730410512 251.25005563100183 207.31181556995472 400.00005373954787 198.20087818580626C548.7500518480938 189.0899408016578 506.2500523885093 529.9133739678638 655.0000504970553 550.7383737030602C803.750048605601 571.5633734382566 761.2500491460169 233.80790898303945 910.0000472545628 269.60087727790835C1058.7500453631085 305.3938455727772 1090.6250449577972 555.6657173904057 1165.00004401207 673.4571221426106 " transform="rotate(58.5, 400, 400)"></path><path d="M-322.49993666807813 538.1494515874926C-252.2568820057092 422.59962666789585 -222.1527157218368 132.14459563900027 -81.66660639709892 141.97862329173194C58.81950292763901 151.81265094446357 18.680614549142376 552.1980625199665 159.1667238738803 571.8661178254297C299.65283319861817 591.534173130893 259.51394482012154 218.0167299637463 400.0000541448594 209.4119557676061C540.4861634695974 200.8071815714659 500.34727509110076 522.6959795617715 640.8333844158385 542.3640348672347C781.3194937405765 562.0320901726981 741.1806053620801 243.04081818721522 881.6667146868178 276.84528824348024C1022.1528240115556 310.64975829974526 1052.2569902954283 547.0176372386168 1122.500044957797 658.2650750601435 " transform="rotate(55.25, 400, 400)"></path><path d="M-279.999936803182 530.0229683800253C-213.88882653271713 421.2701919851106 -185.55549355966076 147.9007510167383 -53.333273018731006 157.1563064546034C78.88894752219886 166.4118618924685 41.11117022479027 543.2451904341183 173.33339076571997 561.7563013098484C305.5556113066498 580.2674121855785 267.77783400924125 228.7215833223816 400.00005455017106 220.62297231424967C532.2222750911008 212.52436130611773 494.4444977936921 515.4785241205232 626.666718334622 533.9896349962531C758.8889388755517 552.5007458719833 721.1111615781433 252.27366635623474 853.3333821190731 284.08963817389593C985.5556026600027 315.9056099915572 1013.8889356330592 538.3694960516714 1080.0000459035239 643.0729669425202 " transform="rotate(52, 400, 400)"></path><path d="M-237.49993693828583 521.8965614665032C-175.52077105972504 419.94083359627064 -148.95827139748468 163.65698268842164 -24.99993964036298 172.33406591142017C98.95839211675872 181.0111491344187 63.541725900438166 534.2923946422154 187.50005765755986 551.6465610882124C311.4583894146815 569.0007275342093 276.04172319836096 239.42651297496224 400.0000549554826 231.83406515483856C523.9583867126042 224.24161733471485 488.5417204962837 508.2611449732198 612.5000522534054 525.6153114192168C736.458384010527 542.9694778652138 701.0417177942068 261.5065908191996 825.0000495513282 291.33406439825694C948.9583813084498 321.1615379773143 975.5208809706903 529.7214311586715 1037.500046849251 627.8809351188422 " transform="rotate(48.75, 400, 400)"></path><path d="M-194.9999370733897 513.7701087766138C-137.15271558673294 418.6114294310636 -112.36104923530866 179.4131685837378 3.333393738004929 187.51177959186975C119.02783671131851 195.61039060000172 85.972281576086 525.3395530739452 201.6667245493996 541.5367750902092C317.3611675227131 557.733997106473 284.30561238748066 250.1313968511757 400.00005536079414 243.04511221906026C515.6944983341077 235.95882758694478 482.63894319887527 501.04372004954945 598.3333861721887 517.2409420658133C714.0278291455022 533.4381640820772 680.97227401027 270.73946950579716 796.6667169835837 298.57844484625076C912.3611599568969 326.41742018670425 937.1528263083212 521.0733204893043 995.000047794978 612.688857518797 " transform="rotate(45.5, 400, 400)"></path><path d="M-152.49993720849358 505.64370186309185C-98.78466011374087 417.28207104222366 -75.76382707313257 195.16940025542115 31.66672711637284 202.68953904868653C139.09728130587837 210.20967784195193 108.4028372517339 516.3867572820425 215.83339144123937 531.4270348685732C323.26394563074473 546.4673124551039 292.56950157660026 260.83632650375637 400.0000557661058 254.25620505964915C507.4306099556112 247.67608361554193 476.73616590146673 493.8263409022463 584.1667200909721 508.866618488777C691.5972742804776 523.9068960753077 660.9028302263333 279.972393968762 768.3333844158387 305.82287107061177C875.763938605344 331.6733481724615 898.7847716459523 512.4252555963043 952.5000487407051 597.496825695119 " transform="rotate(42.25, 400, 400)"></path><path d="M-109.99996786117555 497.5172644319916C-60.4166351583269 415.9526821358056 -39.16663542853462 210.9256014095264 60.00002997716274 217.86726798792517C159.1666953828601 224.808934566324 130.83336240980367 507.43393097256137 230.00002781550097 521.3172641293589C329.16669322119833 535.2005972861566 300.83336024814184 271.5412256387589 400.0000256538392 265.4672673826599C499.16669105953656 259.39330912656095 470.8333580864801 486.6089312373649 570.0000234921774 500.49226439416253C669.1666888978747 514.37559755096 640.8333559248185 289.2052879141487 740.0000213305158 313.0672667773946C839.166686736213 336.92924564064054 860.4166864660056 503.7771601857262 910.0000191688539 582.3047633538629 " transform="rotate(39, 400, 400)"></path><path d="M-67.49996799627941 489.3908422596804C-22.0485796853348 414.6233084881766 -2.5694132663585663 226.68181782242067 88.33336335553065 233.0450121859529C179.23613997741995 239.40820654948516 153.2639180854515 498.4811199218694 244.16669470734075 511.2075086489338C335.06947132922994 523.9338973759983 309.09724943726155 282.24614003255044 400.00002605915074 276.6783449644597C490.90280268104004 271.110549896369 464.93058078907166 479.3915368312727 555.8333574109608 492.1179255583371C646.7361340328499 504.8443142854016 620.7639121408818 298.43819711832447 711.666688762771 320.31167774296654C802.5694653846601 342.1851583676086 822.0486318036363 495.12908003393716 867.5000201145808 567.1127162713957 " transform="rotate(35.75, 400, 400)"></path><path d="M-24.999998648961395 481.26437431100214C16.319445270079143 413.29388906418046 34.02777837823936 242.43798845894776 116.66666621632046 248.22271060761346C199.30555405440163 254.00743275627912 175.69444324352128 489.52826309481026 258.33333108160235 501.0977073921416C340.9722189196835 512.6671516894729 317.36110810880314 292.9510086499748 399.99999594688416 287.88937676989235C482.6388837849654 282.8277448898099 459.027772974085 472.17409664881325 541.6666608121661 483.74354094614455C624.3055486502471 495.31298524347585 600.694437839367 307.67106054613305 683.333325677448 327.5560429321713C765.9722135155291 347.44102531820954 783.6805466236893 486.48095410578094 824.9999905427298 551.9206234125614 " transform="rotate(32.5, 400, 400)"></path><path d="M17.500001215934745 473.13796739748C54.68750074307124 411.96453067534054 70.62500054041544 258.1942201306311 144.99999959468843 263.40047006443024C219.37499864896142 268.6067199982293 198.12499891916912 480.5754673029073 272.4999979734422 490.9879671705055C346.87499702771515 501.4004670381037 325.6249972979228 303.65593830255546 399.9999963521958 299.10046961048124C474.37499540646877 294.545000918407 453.12499567667646 464.95671750151 527.4999947309495 475.36921736910824C601.8749937852224 485.7817172367064 580.6249940554303 316.9039850090978 654.9999931097033 334.8004691565323C729.3749921639761 352.6969533039667 745.3124919613205 477.83288921278097 782.4999914884569 536.7285915888834 " transform="rotate(29.25, 400, 400)"></path><path d="M60.000001080830884 465.0114765606181C93.05555621606331 410.6350883631608 107.2222227025915 273.9503678789746 173.33333297305637 278.57814559790717C239.44444324352128 283.2059233168397 220.555554594817 471.6225875876646 286.66666486528186 480.87814302552965C352.77777513574677 490.1336984633947 333.8888864870425 314.3607840317963 399.9999967575074 310.3114785277303C466.11110702797225 306.26217302366433 447.22221837926793 457.73925443086705 513.333328649733 466.99480986873203C579.4444389201977 476.25036530659713 560.5555502714935 326.1368255487228 626.6666605419584 342.04481145755346C692.7777708124232 357.95279736638406 706.9444372989515 469.18474039644116 739.9999924341838 521.5364758418656 " transform="rotate(26, 400, 400)"></path><path d="M102.50000094572702 456.88503912951785C131.4236116890554 409.30569945674273 143.81944486476755 289.70656903307986 201.66666635142434 293.7558745371458C259.51388783808113 297.80518004121177 242.98611027046488 462.66976127818356 300.83333175712164 470.7683722863155C358.68055324377843 478.86698329444744 342.1527756761622 325.0656831667988 399.99999716281894 321.52254085074105C457.84721864947574 317.97939853468336 441.3194410818595 450.52184476598563 499.16666256851624 458.6204557741176C557.013884055173 466.7190667822495 540.4861064875569 335.3697194941095 598.3333279742137 349.2892071643363C656.1805494608703 363.20869483456306 668.5763826365825 460.53664498586306 697.4999933799108 506.34441350060945 " transform="rotate(22.75, 400, 400)"></path><path d="M145.00000081062316 448.7586322159958C169.79166716204747 407.9763410679028 180.41666702694363 305.4628007047632 229.9999997297923 308.9336339939626C279.583332432641 312.40446728316203 265.41666594611274 453.7169654862807 314.9999986489614 460.65863206467947C364.5833313518101 467.6002986430783 350.41666486528186 335.77061281937944 399.99999756813054 332.73363369132994C449.5833302709792 329.6966545632805 435.416663784451 443.30446561868246 484.99999648729965 450.24613219708124C534.5833291901483 457.18779877548 520.4166627036202 344.60264395707435 569.9999954064688 356.5336333886973C619.5833281093174 368.46462282032024 630.2083279742137 451.8885800928631 654.9999943256379 491.15238167693144 " transform="rotate(19.5, 400, 400)"></path><path d="M187.5000006755193 440.6321871555011C208.15972263503957 406.64694453209023 217.01388918911968 321.2189942294739 258.3333331081602 324.1113553038067C299.65277702720084 327.00371637813953 287.84722162176064 444.7641315474051 329.1666655408012 450.5488536960708C370.4861094598417 456.33357584473646 358.68055405440157 346.4755043249874 399.9999979734421 343.9446883849462C441.3194418924827 341.41387244490494 429.5138864870425 436.0870483244066 470.83333040608306 441.8717704730723C512.1527743251236 447.6564926217379 500.3472189196835 353.8355302730665 541.666662838724 363.77802146608565C582.9861067577646 373.72051265910477 591.8402733118446 443.24047705289047 612.4999952713649 475.9603117062807 " transform="rotate(16.25, 400, 400)"></path><path d="M230.00000054041544 432.50574972440086C246.52777810803167 405.3175556256722 253.61111135129573 336.9751953835791 286.6666664865282 339.2890842430454C319.72222162176064 341.60297310251167 310.27777729740853 435.8113052379241 343.33333243264093 440.4390829568566C376.3888875678734 445.06686067578914 366.9444432435213 357.1804034599899 399.99999837875373 355.15575070795694C433.0555535139861 353.13109795592396 423.61110918963396 428.8696386595253 456.6666643248665 433.49741637845784C489.72221946009887 438.12519409739036 480.27777513574677 363.06842421845323 513.3333302709792 371.02241717286853C546.3888854062116 378.9764101272838 553.4722186494757 434.5923816423124 569.9999962170918 460.7682493650246 " transform="rotate(13, 400, 400)"></path><path d="M272.5000004053116 424.3793161079979C284.89583358102374 403.9881705339514 290.2083335134718 352.73140035238157 314.99999986489615 354.46681699698127C339.7916662163205 356.202233641581 332.7083329730564 426.85848274314037 357.4999993244807 430.32931603233976C382.29166567590505 433.80014932153915 375.20833243264093 367.88530640968975 399.99999878406527 366.36681684566497C424.7916651354896 364.84832728164025 417.7083318922255 421.6522328093412 442.4999982436498 425.1230660985406C467.29166459507417 428.59389938774 460.2083313518101 372.3013219785372 484.9999977032344 378.2668166943487C509.7916640546587 384.23231141016015 515.1041639871069 425.94429004643155 527.499997162819 445.5761908384657 " transform="rotate(9.75, 400, 400)"></path><path d="M315.0000002702077 416.2528786768977C323.26388905401586 402.65878162753336 326.80555567564784 368.48760150648684 343.33333324326406 369.64454593621997C359.8611108108803 370.8014903659531 355.13888864870427 417.9056564336593 371.66666621632044 420.2195452931256C388.19444378393666 422.53343415259184 383.47222162176064 378.59020554469225 399.99999918937687 377.57787916867574C416.52777675699303 376.5655527926592 411.80555459481695 414.4348231444599 428.33333216243324 416.7487120039262C444.8611097300494 419.06260086339245 440.1388875678734 381.53421592392385 456.6666651354896 385.5112124011315C473.1944427031058 389.48820887833915 476.73610932473787 417.29619463585345 484.9999981085459 430.38412849720953 " transform="rotate(6.5, 400, 400)"></path><path d="M357.5000039498011 408.1264374311002C361.6319483417052 401.32938890641805 363.4027816525212 384.2437988458948 371.66667043632935 384.82227106076135C379.9305592201374 385.4007432756279 377.5694481390494 408.952826309481 385.8333369228575 410.1097707392141C394.0972257066656 411.26671516894726 391.73611462557756 389.2951008649975 400.0000034093857 388.78893767698924C408.2638921931938 388.282774488981 405.90278111210574 407.2174096648813 414.16666989591386 408.37435409461443C422.43055867972197 409.53129852434756 420.06944759863393 390.7671060546133 428.3333363824421 392.7556042932171C436.59722516625015 394.74410253182094 438.3680584770662 408.6480954105781 442.5000028689702 415.19206234125613 " transform="rotate(3.25, 400, 400)"></path></g></svg>